# xmcd CD database file
#
# Track frame offsets:
#	150
#	34519
#	72438
#	108431
#	137017
#	161101
#	194210
#
# Disc length: 2975 seconds
#
# Revision: 0
# Processed by: cddbd v1.5.2PL0 Copyright (c) Steve Scherf et al.
# Submitted via: CDex 1.78
#
DISCID=660b9d07
DTITLE=ENRIQUITO - CONTRARRELOJ
DYEAR=2016
DGENRE=Jazz
TTITLE0=DESDE LAS ALTURAS
TTITLE1=NOCHE EN CASAMATY
TTITLE2=LA VERBENA
TTITLE3=CONTRARRELOJ
TTITLE4=NUNCA MAS
TTITLE5=EL MURCIELAGO
TTITLE6=BAJANDO DEL MIRADOR
EXTD=YEAR: 2016
EXTT0=
EXTT1=
EXTT2=
EXTT3=
EXTT4=
EXTT5=
EXTT6=
PLAYORDER=
